<?xml version="1.0" standalone="no"?>
<!DOCTYPE svg PUBLIC "-//W3C//DTD SVG 20010904//EN"
 "http://www.w3.org/TR/2001/REC-SVG-20010904/DTD/svg10.dtd">
<svg version="1.0" xmlns="http://www.w3.org/2000/svg"
 width="162.000000pt" height="259.000000pt" viewBox="0 0 162.000000 259.000000"
 preserveAspectRatio="xMidYMid meet">

<g transform="translate(0.000000,259.000000) scale(0.100000,-0.100000)"
fill="#000000" stroke="none">
<path d="M716 2415 c-22 -28 -34 -35 -61 -35 -29 0 -39 -6 -59 -39 -14 -22
-30 -42 -36 -46 -19 -11 -40 15 -34 41 9 34 -19 32 -46 -3 -23 -29 -23 -44 -1
-178 5 -33 11 -107 13 -165 4 -113 17 -151 66 -198 19 -18 23 -26 14 -30 -8
-2 -47 -27 -88 -54 -85 -57 -150 -135 -195 -234 -69 -151 -147 -509 -133 -609
7 -55 33 -113 59 -135 11 -9 37 -13 69 -12 86 3 91 18 70 232 -6 65 -6 65 56
188 34 67 66 122 70 122 23 0 22 -100 0 -230 -39 -225 -36 -483 6 -672 6 -24
1 -29 -47 -53 -69 -35 -99 -63 -99 -91 0 -19 7 -24 36 -30 54 -10 144 1 205
26 29 12 63 26 75 30 19 8 22 19 28 142 7 130 39 347 55 376 15 27 76 -103
146 -308 36 -107 67 -199 69 -205 2 -5 34 -25 71 -44 55 -28 81 -35 146 -39
74 -4 79 -3 79 16 0 37 -11 51 -76 97 l-64 46 0 59 c0 93 -38 437 -62 557 -11
59 -23 157 -25 217 -5 123 -7 122 62 32 46 -61 84 -121 112 -179 23 -48 24
-50 8 -98 -30 -90 -4 -148 46 -103 19 17 19 16 19 -34 0 -99 21 -106 91 -32
89 94 89 130 3 445 -26 92 -106 268 -146 319 -53 68 -155 158 -231 205 -45 28
-88 51 -94 51 -20 0 -15 14 12 40 13 12 36 40 51 62 15 22 40 46 55 53 29 16
32 28 45 198 8 96 -9 146 -66 202 -22 22 -40 44 -40 51 0 6 -11 23 -25 39 -19
20 -32 25 -49 21 -13 -3 -31 1 -42 9 -10 8 -35 15 -55 15 -30 0 -41 -6 -63
-35z m89 5 c3 -5 -2 -10 -12 -10 -17 -1 -17 -1 1 -11 10 -6 34 -9 54 -6 42 7
72 -7 72 -33 0 -10 18 -34 40 -52 21 -19 46 -47 55 -64 15 -29 21 -115 8 -128
-4 -3 -24 10 -44 30 -33 32 -36 40 -27 60 26 57 -23 108 -82 84 -28 -12 -34
-11 -62 10 -25 18 -34 20 -54 11 -13 -6 -24 -15 -24 -21 0 -13 -47 -13 -55 0
-13 21 -45 9 -72 -27 -35 -48 -42 -53 -76 -53 -33 0 -45 24 -39 77 l5 37 13
-26 c24 -46 45 -44 90 6 29 34 47 46 68 46 19 0 38 12 63 40 35 39 65 50 78
30z m64 -149 c24 8 35 8 46 -1 17 -14 20 -51 4 -67 -7 -7 5 -26 43 -63 l53
-53 -49 42 c-67 57 -71 43 -5 -17 45 -42 52 -52 41 -65 -10 -12 -9 -20 4 -44
22 -37 13 -62 -25 -69 -17 -4 -33 -16 -40 -30 -16 -37 -91 -113 -130 -134 -22
-12 -29 -19 -18 -20 27 0 20 -16 -13 -30 -36 -15 -97 -7 -119 15 -15 15 -13
16 22 10 50 -10 47 1 -4 15 -54 15 -133 92 -148 145 -14 50 -14 146 -1 213 8
42 19 61 60 102 48 47 52 49 92 44 35 -5 46 -2 62 15 18 20 19 20 56 1 32 -16
44 -18 69 -9z m-362 -128 c-3 -10 -5 -4 -5 12 0 17 2 24 5 18 2 -7 2 -21 0
-30z m225 -443 c30 0 54 7 71 20 27 22 54 25 77 10 13 -8 10 -14 -15 -35 -16
-13 -45 -30 -63 -37 -19 -7 -35 -21 -37 -33 -3 -11 -9 -40 -15 -65 -5 -25 -10
-109 -10 -187 0 -187 -6 -181 172 -165 l76 7 7 -68 c4 -39 3 -73 -2 -78 -18
-18 -221 -30 -341 -20 -63 6 -118 14 -122 18 -3 5 -4 41 -2 81 4 73 4 73 30
70 l27 -3 1 140 c0 115 4 155 24 224 l23 84 -26 19 c-33 24 -34 42 -4 55 18 8
28 5 53 -13 22 -17 44 -24 76 -24z m662 -727 c9 -26 15 -69 15 -97 l-2 -51 -6
40 c-5 30 -8 36 -14 22 -4 -10 -7 -36 -7 -57 0 -61 -20 -59 -21 2 l-1 53 -14
-73 c-21 -118 -54 -140 -54 -38 0 70 -6 96 -23 96 -6 0 -7 -3 -4 -7 9 -9 -22
-43 -40 -43 -16 0 -16 0 6 84 19 71 26 79 91 103 53 19 57 17 74 -34z m-1100
6 c17 -15 18 -22 8 -44 -11 -23 -9 -30 8 -52 25 -33 26 -63 1 -63 -23 0 -59
34 -90 83 -44 72 -37 40 15 -67 37 -75 41 -96 21 -96 -19 0 -43 29 -62 73 -15
35 -21 150 -9 180 7 20 83 11 108 -14z m46 -85 c0 -8 -4 -12 -10 -9 -5 3 -10
10 -10 16 0 5 5 9 10 9 6 0 10 -7 10 -16z m-28 -108 c12 -17 9 -36 -5 -36 -11
0 -37 39 -37 55 0 8 35 -8 42 -19z m25 -8 c-3 -8 -6 -5 -6 6 -1 11 2 17 5 13
3 -3 4 -12 1 -19z"/>
<path d="M775 2201 c-6 -10 25 -31 46 -31 8 0 5 7 -6 20 -20 22 -31 25 -40 11z"/>
<path d="M570 2169 c-7 -11 -9 -23 -6 -26 7 -7 46 26 46 39 0 17 -30 7 -40
-13z"/>
<path d="M759 2113 c-17 -46 20 -80 44 -42 13 21 1 69 -18 69 -9 0 -20 -12
-26 -27z"/>
<path d="M560 2106 c-12 -32 -3 -58 19 -54 21 4 26 51 7 67 -13 11 -17 9 -26
-13z"/>
<path d="M945 2091 c22 -22 42 -37 44 -35 7 6 -61 74 -73 74 -6 0 7 -18 29
-39z"/>
<path d="M639 2062 c-24 -35 -25 -40 -11 -60 19 -28 47 -31 32 -3 -7 14 -6 29
5 55 25 60 13 64 -26 8z"/>
<path d="M900 2085 c0 -9 54 -54 64 -55 5 0 1 9 -10 21 -20 22 -54 44 -54 34z"/>
<path d="M773 1968 c1 -6 -16 -17 -38 -24 -66 -21 -164 -16 -149 7 3 5 1 9 -4
9 -14 0 -31 -45 -22 -60 18 -28 150 -30 206 -2 21 10 45 17 52 15 19 -7 15 38
-5 53 -22 17 -44 18 -40 2z m31 -29 c-11 -19 -87 -49 -125 -49 -41 0 -99 18
-99 30 0 5 15 4 33 -1 33 -9 108 0 157 20 33 13 43 13 34 0z"/>
<path d="M645 1840 c3 -5 17 -10 30 -10 13 0 27 5 30 10 4 6 -8 10 -30 10 -22
0 -34 -4 -30 -10z"/>
</g>
</svg>
